<svg width="18" height="18" viewBox="0 0 18 18" fill="none" xmlns="http://www.w3.org/2000/svg">
<path d="M14.9997 10.128V14.786C15.0011 14.8407 14.9818 14.8939 14.9457 14.935C14.9287 14.9542 14.9077 14.9695 14.8842 14.9798C14.8608 14.9902 14.8353 14.9953 14.8097 14.995H12.6227C12.597 14.9953 12.5716 14.9902 12.5481 14.9798C12.5246 14.9695 12.5037 14.9542 12.4867 14.935C12.4501 14.8941 12.4304 14.8408 12.4317 14.786V10.46C12.4317 9.32195 12.0637 8.54095 11.1317 8.54095C10.8317 8.55199 10.5431 8.65811 10.3074 8.84398C10.0717 9.02985 9.90129 9.28584 9.82067 9.57495C9.75364 9.7982 9.72423 10.0311 9.73367 10.264V14.791C9.7352 14.8457 9.71591 14.8989 9.67968 14.94C9.66272 14.9592 9.64177 14.9746 9.61828 14.9849C9.5948 14.9953 9.56933 15.0004 9.54367 15H7.36166C7.30877 14.9974 7.25909 14.9739 7.22348 14.9347C7.18786 14.8955 7.16921 14.8438 7.17166 14.791C7.17166 13.64 7.19966 8.04395 7.17166 6.72695C7.1702 6.67273 7.18912 6.61993 7.22467 6.57895C7.24115 6.55976 7.26155 6.5443 7.28448 6.53361C7.30741 6.52292 7.33236 6.51724 7.35766 6.51695H9.53567C9.56085 6.51653 9.58584 6.52149 9.60894 6.53149C9.63205 6.54149 9.65275 6.55631 9.66967 6.57495C9.70615 6.61517 9.72615 6.66766 9.72567 6.72195V7.74695V7.71595C9.93735 7.28959 10.2661 6.93234 10.6734 6.686C11.0807 6.43966 11.5498 6.31443 12.0257 6.32495C13.7127 6.32495 14.9757 7.53695 14.9757 10.141L14.9997 10.128ZM3.37268 15H5.55468C5.60757 14.9974 5.65725 14.9739 5.69287 14.9347C5.72848 14.8955 5.7471 14.8438 5.74465 14.791V6.72195C5.74472 6.6706 5.72503 6.62119 5.68966 6.58395C5.65429 6.54672 5.60597 6.52452 5.55468 6.52195H3.37268C3.3475 6.52153 3.32251 6.52649 3.2994 6.53649C3.2763 6.54649 3.2556 6.56131 3.23867 6.57995C3.20219 6.62017 3.1822 6.67266 3.18267 6.72695V14.795C3.18142 14.8498 3.20108 14.9031 3.23767 14.944C3.25488 14.9624 3.27585 14.9769 3.29913 14.9865C3.32241 14.9962 3.34748 15.0008 3.37268 15Z" fill="#344054"/>
<path d="M6.01789 4.52595C6.01399 4.87468 5.88941 5.21129 5.66536 5.47854C5.4413 5.74579 5.13159 5.92719 4.78889 5.99188C4.44619 6.05657 4.09169 6.00056 3.78563 5.83338C3.47956 5.6662 3.24085 5.39816 3.11009 5.07486C2.97933 4.75155 2.96458 4.39293 3.06837 4.05999C3.17216 3.72704 3.38805 3.44032 3.67936 3.24858C3.97067 3.05685 4.31942 2.97193 4.66627 3.00828C5.01312 3.04463 5.33665 3.19999 5.58189 3.44795C5.72225 3.58987 5.83307 3.75823 5.90791 3.94327C5.98275 4.12831 6.02013 4.32636 6.01789 4.52595Z" fill="#344054"/>
</svg>
